<svg fill="none" height="40" viewBox="0 0 36 40" width="36" xmlns="http://www.w3.org/2000/svg">
    <g clip-path="url(#clip0_3908_3122)">
        <mask style="mask-type:luminance" height="40" id="mask0_3908_3122" width="36" x="0" y="0">
            <path d="M36 0H0V40H36V0Z" fill="white" />
        </mask>
        <g mask="url(#mask0_3908_3122)">
            <path
                d="M34.1415 8.6432L19.8929 0.498052C19.3228 0.17083 18.6758 -0.00146484 18.0171 -0.00146484C17.3586 -0.00146484 16.7116 0.17083 16.1415 0.498052L1.89292 8.62613C1.31891 8.95097 0.841552 9.42051 0.509154 9.98723C0.176757 10.5539 0.00111411 11.1977 0 11.8534V28.1266C0.00145865 28.7803 0.175382 29.4222 0.504462 29.9883C0.833543 30.5546 1.30631 31.0253 1.87572 31.354L16.1243 39.4992C16.6944 39.8263 17.3413 39.9986 18 39.9986C18.6587 39.9986 19.3056 39.8263 19.8757 39.4992L34.1243 31.371C34.6936 31.0425 35.1664 30.5716 35.4956 30.0055C35.8246 29.4392 35.9986 28.7973 36 28.1438V11.8534C36.0089 11.2021 35.8412 10.5604 35.5141 9.99557C35.1871 9.43074 34.7131 8.96363 34.1415 8.6432ZM23.0593 25.9068C23.2485 28.7926 23.3518 31.0808 22.6119 33.386C22.145 34.8088 21.4092 36.13 20.4435 37.2793C20.0634 37.7362 19.6553 38.1696 19.2218 38.577C18.3786 39.3625 17.0364 39.26 16.0898 38.7308L9.18929 34.8033L19.824 14.5685C19.8497 14.5059 19.8505 14.4362 19.8266 14.373C19.8026 14.3099 19.7555 14.258 19.6946 14.2278C19.6338 14.1976 19.5637 14.1913 19.4983 14.2102C19.4331 14.229 19.3774 14.2716 19.3422 14.3295L8.72467 34.53L2.0478 30.7222C1.79119 30.569 1.55428 30.3856 1.34226 30.1758C1.27342 30.1075 1.2218 30.0392 1.15296 29.9709C1.09027 29.901 1.03276 29.8269 0.980879 29.7489L4.83556 24.7628L10.0497 18.0178L16.6578 9.44576L16.7093 9.37745L16.7266 9.36038C17.6149 8.60793 18.7678 8.23573 19.9323 8.32535C21.0969 8.41497 22.178 8.95913 22.9388 9.8385L25.6061 12.9292C25.847 13.2024 26.6214 13.561 27.0688 13.7147L27.5851 13.9025C25.9847 14.927 24.4704 16.0882 23.7476 17.8983C22.7151 20.4596 22.8872 23.2259 23.0593 25.9068Z"
                fill="#004D71" />
            <path
                d="M21.3552 11.9389C21.3552 11.7577 21.2826 11.584 21.1536 11.4559C21.0245 11.3278 20.8494 11.2559 20.6668 11.2559C20.4842 11.2559 20.3091 11.3278 20.1801 11.4559C20.0509 11.584 19.9785 11.7577 19.9785 11.9389V12.0413C19.9828 12.1266 20.0041 12.2102 20.0412 12.2872C20.0782 12.3643 20.1301 12.4333 20.1941 12.4904C20.258 12.5476 20.3328 12.5916 20.4138 12.62C20.4949 12.6484 20.5809 12.6607 20.6668 12.6561C20.8447 12.6602 21.017 12.5943 21.1461 12.4727C21.2749 12.351 21.3503 12.1837 21.3552 12.0072V11.9389Z"
                fill="#004D71" />
        </g>
    </g>
    <defs>
        <clipPath id="clip0_3908_3122">
            <rect fill="white" height="40" width="36" />
        </clipPath>
    </defs>
</svg>
